<svg viewBox="0 0 500 500" xmlns="http://www.w3.org/2000/svg" xmlns:xlink="http://www.w3.org/1999/xlink" version="1.1" baseProfile="full" fill="currentColor">
    <g transform="scale(1,-1) translate(0,-500)">
        <path d="M 474.067300 1.154800 L 477.046000 1.609300 L 479.921000 2.348700 L 482.677300 3.357500 L 485.299700 4.620800 L 487.773200 6.123500 L 490.082700 7.850500 L 492.213200 9.786700 L 494.149400 11.917200 L 495.876400 14.226700 L 497.379100 16.700200 L 498.642400 19.322600 L 499.651200 22.078900 L 500.390500 24.953900 L 500.845100 27.932600 L 501.000000 31.000000 L 501.000000 470.999900 L 500.845100 474.067300 L 500.390500 477.046000 L 499.651200 479.921000 L 498.642400 482.677300 L 497.379100 485.299700 L 495.876400 487.773200 L 494.149400 490.082700 L 492.213200 492.213200 L 490.082700 494.149400 L 487.773200 495.876400 L 485.299700 497.379100 L 482.677300 498.642400 L 479.921000 499.651200 L 477.046000 500.390500 L 474.067300 500.845100 L 470.999900 501.000000 L 31.000000 501.000000 L 27.932600 500.845100 L 24.953900 500.390500 L 22.078900 499.651200 L 19.322600 498.642400 L 16.700200 497.379100 L 14.226700 495.876400 L 11.917200 494.149400 L 9.786700 492.213200 L 7.850500 490.082700 L 6.123500 487.773200 L 4.620800 485.299700 L 3.357500 482.677300 L 2.348700 479.921000 L 1.609300 477.046000 L 1.154800 474.067300 L 1.000000 470.999900 L 1.000000 31.000000 L 1.154800 27.932600 L 1.609300 24.953900 L 2.348700 22.078900 L 3.357500 19.322600 L 4.620800 16.700200 L 6.123500 14.226700 L 7.850500 11.917200 L 9.786700 9.786700 L 11.917200 7.850500 L 14.226700 6.123500 L 16.700200 4.620800 L 19.322600 3.357500 L 22.078900 2.348700 L 24.953900 1.609300 L 27.932600 1.154800 L 31.000000 1.000000 L 470.999900 1.000000 Z M 166.024400 47.665600 L 217.616700 138.710800 L 41.595900 454.334300 L 323.836100 454.334300 L 278.313500 360.254200 L 460.404000 47.665600 Z M 330.236900 332.616900 L 401.982100 454.334300 L 460.404000 454.334300 L 356.751400 282.707100 Z M 41.595900 47.665600 L 137.633600 224.943300 L 168.199200 173.464500 L 92.589700 47.665600 Z" transform="scale(1.000000,1.000000) translate(-1.000000,-1.000000)" fill="currentColor" opacity="1.000000"></path>
    </g>
</svg>